<?xml version="1.0" encoding="iso-8859-1"?>
<!-- Generator: Adobe Illustrator 19.0.0, SVG Export Plug-In . SVG Version: 6.00 Build 0)  -->
<svg version="1.1" id="Capa_1" xmlns="http://www.w3.org/2000/svg" xmlns:xlink="http://www.w3.org/1999/xlink" x="0px" y="0px"
	 viewBox="0 0 512 512" style="enable-background:new 0 0 512 512;" xml:space="preserve">
<g>
	<g transform="translate(24)">
		<path style="fill:#A5A5A4;" d="M274.667,341.333h-85.333c-4.713,0-8.533,3.821-8.533,8.533v119.467
			c0,4.713,3.82,8.533,8.533,8.533h85.333c4.713,0,8.533-3.821,8.533-8.533V349.867C283.2,345.154,279.38,341.333,274.667,341.333z
			 M223.467,460.8h-25.6V358.4h25.6V460.8z M266.133,460.8h-25.6V358.4h25.6V460.8z"/>
		<rect x="214.933" y="68.267" style="fill:#3F5C6C;" width="34.133" height="281.6"/>
		<path style="fill:#E64C3C;" d="M257.6,76.8h-51.2c-14.138,0-25.6-11.462-25.6-25.6V8.533c0-4.713,3.82-8.533,8.533-8.533h85.333
			c4.713,0,8.533,3.821,8.533,8.533V51.2C283.2,65.338,271.738,76.8,257.6,76.8z M197.867,17.067V51.2
			c0,4.713,3.82,8.533,8.533,8.533h51.2c4.713,0,8.533-3.821,8.533-8.533V17.067H197.867z"/>
		<path style="fill:#A5A5A4;" d="M283.2,341.333V358.4H180.8v-17.067c0.028-9.414,7.653-17.039,17.067-17.067h68.267
			C275.547,324.295,283.172,331.919,283.2,341.333z"/>
	</g>
	<g transform="translate(0 5)">
		<g>
			<path style="fill:#84B5CB;" d="M128,80.333h-17.493c0.22-1.413,0.363-2.838,0.427-4.267c0-21.208-17.192-38.4-38.4-38.4
				s-38.4,17.192-38.4,38.4c0.053,1.78,0.233,3.553,0.538,5.308c-16.81,4.029-27.942,20.004-25.9,37.169s16.61,30.083,33.896,30.057
				H128c18.851,0,34.133-15.282,34.133-34.133S146.851,80.333,128,80.333z"/>
			<path style="fill:#84B5CB;" d="M443.733,131.533H426.24c0.22-1.413,0.363-2.838,0.427-4.267c0-21.208-17.192-38.4-38.4-38.4
				c-21.208,0-38.4,17.192-38.4,38.4c0.053,1.78,0.233,3.553,0.538,5.308c-16.81,4.029-27.942,20.004-25.9,37.169
				c2.042,17.165,16.61,30.083,33.896,30.057h85.333c18.851,0,34.133-15.282,34.133-34.133S462.585,131.533,443.733,131.533z"/>
		</g>
		<rect x="8.533" y="464.333" style="fill:#CB8252;" width="494.933" height="34.133"/>
		<g>
			<path style="fill:#805333;" d="M8.533,472.867h76.8c4.713,0,8.533-3.821,8.533-8.533c0-4.713-3.821-8.533-8.533-8.533h-76.8
				C3.821,455.8,0,459.621,0,464.333C0,469.046,3.821,472.867,8.533,472.867z"/>
			<path style="fill:#805333;" d="M119.467,472.867h384c4.713,0,8.533-3.821,8.533-8.533c0-4.713-3.82-8.533-8.533-8.533h-384
				c-4.713,0-8.533,3.821-8.533,8.533C110.933,469.046,114.754,472.867,119.467,472.867z"/>
			<path style="fill:#805333;" d="M503.467,489.933h-76.8c-4.713,0-8.533,3.821-8.533,8.533c0,4.713,3.82,8.533,8.533,8.533h76.8
				c4.713,0,8.533-3.821,8.533-8.533C512,493.754,508.18,489.933,503.467,489.933z"/>
			<path style="fill:#805333;" d="M392.533,489.933h-384c-4.713,0-8.533,3.821-8.533,8.533C0,503.18,3.821,507,8.533,507h384
				c4.713,0,8.533-3.821,8.533-8.533C401.067,493.754,397.246,489.933,392.533,489.933z"/>
		</g>
	</g>
</g>
<g>
</g>
<g>
</g>
<g>
</g>
<g>
</g>
<g>
</g>
<g>
</g>
<g>
</g>
<g>
</g>
<g>
</g>
<g>
</g>
<g>
</g>
<g>
</g>
<g>
</g>
<g>
</g>
<g>
</g>
</svg>
