<svg height="512" viewBox="0 0 58 58" width="512" xmlns="http://www.w3.org/2000/svg"><g id="047---GMO" fill="none" transform="translate(0 -1)"><path id="Shape" d="m18.33 36.79c-5.1794506-3.2093311-11.94186615-2.0275958-15.72592718 2.7481133s-3.38839677 11.6291908.92011314 15.9377007c4.3085099 4.30851 11.16199164 4.7041742 15.93770074.9201132 4.7757091-3.7840611 5.9574444-10.5464766 2.7481133-15.7259272z" fill="#f29c1f"/><path id="Shape" d="m13.87 46.13c-.4018897-.0016616-.7637369-.2437563-.918621-.6146054-.154884-.3708491-.0727076-.7983888.208621-1.0853946l5.66-5.66c.3967603-.3397768.9881942-.3169323 1.3575632.0524368.3693691.369369.3922136.9608029.0524368 1.3575632l-5.66 5.66c-.1862606.1847442-.4376601.2888954-.7.29z" fill="#464f5d"/><ellipse id="Oval" cx="8.673" cy="26.367" fill="#4fba6f" rx="4" ry="6" transform="matrix(.832 -.555 .555 .832 -13.169 9.239)"/><path id="Shape" d="m14 42c-.34 0-.13 0-4.45-2.11-.44879274-.2700473-.61317193-.8406385-.3768341-1.3080622s.79330693-.6732882 1.2768341-.4719378l4 2c.4101627.2101126.6236218.6733224.51688 1.1216381-.1067419.4483157-.5060402.7656308-.96688.7683619z" fill="#e57e25"/><path id="Shape" d="m10 42c-.4608398-.0027311-.86013814-.3200462-.96687997-.7683619s.10671726-.9115255.51687997-1.1216381l4-2c.3211808-.1932607.7234705-.1906728 1.0421383.0067041.3186678.1973768.5001928.5563928.4702434.9300368s-.2663431.6991617-.6123817.8432591c-4.32 2.16-4.12 2.11-4.45 2.11z" fill="#e57e25"/><path id="Shape" d="m53.25 50 2.55-3.4c.2666667-.3555556.2666667-.8444444 0-1.2l-2.55-3.4 2.55-3.4c.2143594-.2858125.2599565-.6642735.1196153-.9928203-.1403412-.3285469-.4452995-.5572657-.8-.6000001-.3547006-.0427344-.705256.1070079-.9196153.3928204l-2.7 3.6h-3l-2.25-3 2.55-3.4c.3313708-.4418278.2418278-1.0686292-.2-1.4s-1.0686292-.2418278-1.4.2l-2.7 3.6h-3.5c-.3147573 0-.6111456.1481942-.8.4l-2.7 3.6h-3.5c-.3147573 0-.6111456.1481942-.8.4l-3 4c-.2666667.3555556-.2666667.8444444 0 1.2 3 4 3.06 4.15 3.38 4.3s.05.1 3.92.1l2.25 3-2.25 3h-3.5c-.5522847 0-1 .4477153-1 1s.4477153 1 1 1h4c.3147573 0 .6111456-.1481942.8-.4l2.7-3.6h3l2.7 3.6c.1888544.2518058.4852427.4.8.4h4c.3147573 0 .6111456-.1481942.8-.4l3-4c.2666667-.3555556.2666667-.8444444 0-1.2zm.5-4-2.25 3h-3l-2.25-3 2.25-3h3zm-12.25 7-2.25-3 2.25-3h3l2.25 3-2.25 3zm0-14h3l2.25 3-2.25 3h-3l-2.25-3zm-9.25 7 2.25-3h3l2.25 3-2.25 3h-3zm19.25 11h-3l-2.25-3 2.25-3h3l2.25 3z" fill="#f3d55b"/><path id="Shape" d="m12 41c-.5522847 0-1-.4477153-1-1v-8.64c0-.5522847.4477153-1 1-1s1 .4477153 1 1v8.64c0 .5522847-.4477153 1-1 1z" fill="#a56a43"/><path id="Shape" d="m12 32.36c-.3326261.0005011-.6437296-.1644212-.83-.44l-3.89-5.83c-.30099517-.4749649-.15996487-1.1040048.31500001-1.405s1.1040048-.1599649 1.40499999.315l3.88 5.83c.1959922.3131569.203365.7088598.0191744 1.0291003-.1841907.3202405-.5299353.5128432-.8991744.5008997z" fill="#a56a43"/><path id="Shape" d="m20.94 33.82 3.16 1.18 1.08 3.08-2.12 2.12c-.3751365.3755541-.8841815.5865733-1.415.5865733s-1.0398635-.2110192-1.415-.5865733l-1.41-1.41c-.3755541-.3751365-.5865733-.8841815-.5865733-1.415s.2110192-1.0398635.5865733-1.415z" fill="#bdc3c7"/><path id="Rectangle-path" d="m46.219 4.638h6v10.27h-6z" fill="#285680" transform="matrix(.707 .707 -.707 .707 21.326 -31.941)"/><path id="Shape" d="m47.81 18.26c-14.39 14.39-12.14 12.13-14.14 14.15l-4.67-2.66-2.4-4.41 14.14-14.15 4.44 2.44z" fill="#3b97d3"/><path id="Shape" d="m33.67 32.41-5.67 5.65c-.3751365.3755541-.8841815.5865733-1.415.5865733s-1.0398635-.2110192-1.415-.5865733l-4.24-4.24c-.3755541-.3751365-.5865733-.8841815-.5865733-1.415s.2110192-1.0398635.5865733-1.415l5.66-5.65z" fill="#3f5c6c"/><g fill="#285680"><path id="Shape" d="m40.74 16.85c-.1877666.1893127-.4433625.2957983-.71.2957983s-.5222334-.1064856-.71-.2957983l-2.12-2.12 1.42-1.42 2.12 2.13c.3877236.3900375.3877236 1.0199625 0 1.41z"/><path id="Shape" d="m37.91 19.68c-.1877666.1893127-.4433625.2957983-.71.2957983s-.5222334-.1064856-.71-.2957983l-2.12-2.12 1.42-1.42 2.12 2.12c.1893127.1877666.2957983.4433625.2957983.71s-.1064856.5222334-.2957983.71z"/><path id="Shape" d="m35.08 22.51c-.3900375.3877236-1.0199625.3877236-1.41 0l-2.12-2.12 1.45-1.39 2.12 2.12c.3637181.398297.3460208 1.0132783-.04 1.39z"/><path id="Shape" d="m32.25 25.33c-.3900375.3877236-1.0199625.3877236-1.41 0l-2.12-2.12 1.41-1.41 2.12 2.12c.3877236.3900375.3877236 1.0199625 0 1.41z"/></g><rect id="Rectangle-path" fill="#84b5cb" height="4" rx="1" transform="matrix(.707 .707 -.707 .707 22.799 -28.41)" width="16" x="37.693" y="11.316"/><rect id="Rectangle-path" fill="#84b5cb" height="4" rx="1" transform="matrix(.707 .707 -.707 .707 19.87 -35.479)" width="12" x="46.762" y="4.246"/></g></svg>