<?xml version="1.0" encoding="iso-8859-1"?>
<!-- Generator: Adobe Illustrator 19.0.0, SVG Export Plug-In . SVG Version: 6.00 Build 0)  -->
<svg version="1.1" id="Capa_1" xmlns="http://www.w3.org/2000/svg" xmlns:xlink="http://www.w3.org/1999/xlink" x="0px" y="0px"
	 viewBox="0 0 512 512" style="enable-background:new 0 0 512 512;" xml:space="preserve">
<g>
	<rect x="162.133" y="12.8" style="fill:#4C8056;" width="315.733" height="256"/>
	<rect x="8.533" y="465.067" style="fill:#CB8252;" width="494.933" height="34.133"/>
	<g>
		<path style="fill:#805333;" d="M503.467,473.6h-76.8c-4.713,0-8.533-3.821-8.533-8.533s3.82-8.533,8.533-8.533h76.8
			c4.713,0,8.533,3.82,8.533,8.533S508.18,473.6,503.467,473.6z"/>
		<path style="fill:#805333;" d="M392.533,473.6h-384C3.821,473.6,0,469.78,0,465.067s3.821-8.533,8.533-8.533h384
			c4.713,0,8.533,3.82,8.533,8.533S397.246,473.6,392.533,473.6z"/>
		<path style="fill:#805333;" d="M8.533,490.667h76.8c4.713,0,8.533,3.821,8.533,8.533c0,4.713-3.821,8.533-8.533,8.533h-76.8
			C3.821,507.733,0,503.913,0,499.2C0,494.487,3.821,490.667,8.533,490.667z"/>
		<path style="fill:#805333;" d="M119.467,490.667h384c4.713,0,8.533,3.821,8.533,8.533c0,4.713-3.82,8.533-8.533,8.533h-384
			c-4.713,0-8.533-3.821-8.533-8.533C110.933,494.487,114.754,490.667,119.467,490.667z"/>
	</g>
	<g>
		<path style="fill:#E4C05C;" d="M298.581,140.8c0,0,1.792,36.019-9.472,51.089c-11.264,15.07-41.557,17.178-41.557,17.178
			s-1.792-36.105,9.472-51.2S298.581,140.8,298.581,140.8z"/>
		<path style="fill:#E4C05C;" d="M247.552,72.533c0,0,30.293,2.099,41.557,17.178c11.264,15.078,9.472,51.089,9.472,51.089
			s-30.293-2.014-41.557-17.067S247.552,72.533,247.552,72.533z"/>
		<path style="fill:#E4C05C;" d="M383.915,140.8c0,0,1.792,36.019-9.472,51.089c-11.264,15.07-41.557,17.178-41.557,17.178
			s-1.792-36.105,9.472-51.2C353.621,142.771,383.915,140.8,383.915,140.8z"/>
		<path style="fill:#E4C05C;" d="M332.885,72.533c0,0,30.293,2.099,41.557,17.178c11.264,15.078,9.472,51.089,9.472,51.089
			s-30.293-2.014-41.557-17.067C331.093,108.681,332.885,72.533,332.885,72.533z"/>
	</g>
	<g>
		<polygon style="fill:#71C285;" points="179.2,12.8 179.2,268.8 136.533,277.333 136.533,4.267 		"/>
		<polygon style="fill:#71C285;" points="503.467,4.267 503.467,277.333 460.8,268.8 460.8,12.8 		"/>
	</g>
	<g>
		<path style="fill:#B19046;" d="M76.8,384c1.108,20.005-14.136,37.155-34.133,38.4C22.67,421.155,7.425,404.005,8.533,384
			c0-21.205,34.133-46.933,34.133-46.933S76.8,362.795,76.8,384z"/>
		<path style="fill:#B19046;" d="M83.977,282.573c-12.888,14.405-34.98,15.727-49.493,2.961
			c-12.769-14.514-11.443-36.61,2.97-49.493c14.421-14.507,55.305-8.738,55.305-8.738S98.483,268.143,83.977,282.573z"/>
		<path style="fill:#B19046;" d="M426.667,149.333H213.333c-4.713,0-8.533-3.821-8.533-8.533c0-4.713,3.82-8.533,8.533-8.533
			h213.333c4.713,0,8.533,3.821,8.533,8.533C435.2,145.513,431.38,149.333,426.667,149.333z"/>
	</g>
</g>
<g>
</g>
<g>
</g>
<g>
</g>
<g>
</g>
<g>
</g>
<g>
</g>
<g>
</g>
<g>
</g>
<g>
</g>
<g>
</g>
<g>
</g>
<g>
</g>
<g>
</g>
<g>
</g>
<g>
</g>
</svg>
