<?xml version="1.0" encoding="iso-8859-1"?>
<!-- Generator: Adobe Illustrator 19.0.0, SVG Export Plug-In . SVG Version: 6.00 Build 0)  -->
<svg version="1.1" id="Capa_1" xmlns="http://www.w3.org/2000/svg" xmlns:xlink="http://www.w3.org/1999/xlink" x="0px" y="0px"
	 viewBox="0 0 512.001 512.001" style="enable-background:new 0 0 512.001 512.001;" xml:space="preserve">
<g>
	<path style="fill:#A5A5A4;" d="M366.814,263.126c-0.874-4.55-5.219-7.57-9.788-6.806c-4.569,0.765-7.694,5.035-7.039,9.622
		l6.4,38.4l-91.853,67.123v-55.731c0-4.713-3.82-8.533-8.533-8.533c-4.713,0-8.533,3.82-8.533,8.533v55.731l-91.853-67.123l6.4-38.4
		c0.654-4.586-2.47-8.857-7.039-9.622c-4.569-0.765-8.914,2.256-9.788,6.806l-34.133,204.8c-0.373,2.233,0.157,4.522,1.473,6.364
		c1.316,1.842,3.309,3.086,5.542,3.458c0.462,0.081,0.93,0.121,1.399,0.119c4.165-0.005,7.718-3.017,8.405-7.125l24.593-147.558
		l89.071,65.084l-101.504,74.172c-3.808,2.781-4.641,8.122-1.86,11.93c2.781,3.808,8.122,4.641,11.93,1.86l97.365-71.159v64.265
		c0,4.713,3.821,8.533,8.533,8.533c4.713,0,8.533-3.82,8.533-8.533V405.07l97.365,71.159c3.808,2.781,9.149,1.948,11.93-1.86
		c2.781-3.808,1.948-9.149-1.86-11.93l-101.461-74.172l89.062-65.084l24.593,147.558c0.685,4.095,4.219,7.103,8.371,7.125
		c0.472,0.002,0.943-0.038,1.408-0.119c2.233-0.372,4.226-1.616,5.542-3.458c1.315-1.842,1.845-4.131,1.473-6.364L366.814,263.126z"
		/>
	<polygon style="fill:#B0D3F0;" points="332.8,78.934 332.8,85.334 179.2,85.334 179.2,78.934 256,8.534 	"/>
	<path style="fill:#67B9CC;" d="M332.8,85.334v128l-4.437,51.2c-10.831,30.678-39.829,51.192-72.363,51.192
		s-61.532-20.514-72.363-51.192l-4.437-51.2v-128H332.8z"/>
	<path style="fill:#41767F;" d="M213.334,213.334v-51.2c0-4.713,3.82-8.533,8.533-8.533h25.6c4.713,0,8.533,3.821,8.533,8.533v51.2
		H213.334z"/>
	<rect x="8.534" y="469.334" style="fill:#CC6F56;" width="494.933" height="34.133"/>
	<g>
		<path style="fill:#804537;" d="M8.534,477.868h494.933c4.713,0,8.533-3.82,8.533-8.533s-3.82-8.533-8.533-8.533H8.534
			c-4.713,0-8.533,3.82-8.533,8.533S3.821,477.868,8.534,477.868z"/>
		<path style="fill:#804537;" d="M85.334,494.934h-76.8c-4.713,0-8.533,3.82-8.533,8.533s3.821,8.533,8.533,8.533h76.8
			c4.713,0,8.533-3.82,8.533-8.533S90.047,494.934,85.334,494.934z"/>
		<path style="fill:#804537;" d="M503.467,494.934h-384c-4.713,0-8.533,3.82-8.533,8.533s3.821,8.533,8.533,8.533h384
			c4.713,0,8.533-3.82,8.533-8.533S508.18,494.934,503.467,494.934z"/>
	</g>
	<path style="fill:#41767F;" d="M358.4,110.934c-2.136,0-4.194-0.801-5.769-2.244L256,20.105l-96.631,88.585
		c-2.247,2.061-5.423,2.767-8.331,1.851c-2.908-0.915-5.107-3.313-5.769-6.289s0.315-6.079,2.562-8.14l102.4-93.867
		c3.263-2.993,8.274-2.993,11.537,0l102.4,93.867c2.593,2.378,3.461,6.105,2.185,9.384
		C365.077,108.775,361.919,110.935,358.4,110.934z"/>
	<path style="fill:#D1D4D1;" d="M136.534,213.334h238.933c4.713,0,8.533,3.821,8.533,8.533v34.133c0,4.713-3.82,8.533-8.533,8.533
		H136.534c-4.713,0-8.533-3.82-8.533-8.533v-34.133C128,217.155,131.821,213.334,136.534,213.334z"/>
</g>
<g>
</g>
<g>
</g>
<g>
</g>
<g>
</g>
<g>
</g>
<g>
</g>
<g>
</g>
<g>
</g>
<g>
</g>
<g>
</g>
<g>
</g>
<g>
</g>
<g>
</g>
<g>
</g>
<g>
</g>
</svg>
